# xmcd
#
# Track frame offsets:
#	150
#	15440
#	33763
#	49253
#	71338
#	87308
#	105278
#	125073
#	140830
#	156578
#
# Disc length: 2263 seconds
#
# Revision: 0
# Processed by: cddbd v1.5.1PL2 Copyright (c) Steve Scherf et al.
# Submitted via: audiograbber 1.83.01
#
DISCID=8208d50a
DTITLE=дглгтягс йойотас  - диадосеис
DYEAR=1994
DGENRE=екк поп
TTITLE0=етси 
TTITLE1=аута та веикиа 
TTITLE2=амте цеиа лас 
TTITLE3=циати 
TTITLE4=выяис есема 
TTITLE5=диадосеис 
TTITLE6=йи ам с' ацапы 
TTITLE7=ема ема 
TTITLE8=ацапг тетоиа 
TTITLE9=йаи дайя╬фы 
EXTD=
EXTT0=
EXTT1=
EXTT2=
EXTT3=
EXTT4=
EXTT5=
EXTT6=
EXTT7=
EXTT8=
EXTT9=
PLAYORDER=
